# xmcd
#
# Track frame offsets: 
#        150
#        11385
#        23123
#        34625
#        47680
#        61041
#        75437
#        87851
#        99477
#        113690
#        125750
#        138275
#        151667
#        164367
#        177505
#        190040
#        203866
#        215676
#
# Disc length: 3061 seconds
#
# Revision: 1
# Processed by: cddbd v1.5.2PL0 Copyright (c) Steve Scherf et al.
# Submitted via: ExactAudioCopyFreeDBPlugin 1.0
#
DISCID=de0bf312
DTITLE=Various Artist - Blues Spirit
DYEAR=2004
DGENRE=Blues
TTITLE0=John Lee Hooker - Hard hearted woman
TTITLE1=Muddy Waters - You gonna miss me
TTITLE2=Blind Boy Fuller - Bye bye baby Blues
TTITLE3=Sonny Terry - Blowing the blues
TTITLE4=Jelly Roll Morton - Each day
TTITLE5=Robert 'Barbecue Bob' Hicks - Barbecue Blues
TTITLE6=John Lee Williamson - Check up on my baby
TTITLE7=Sonny Terry - Crow Jane Blues
TTITLE8=Huddie 'Leadbelly' Ledbetter - I'm on my last go round
TTITLE9=John Lee Hooker - Find me a woman
TTITLE10=Champion Jack Dupree - Gamblin man blues champion
TTITLE11=Leroy Carr - Good woman Blues
TTITLE12=Jelly Roll Morton - High society
TTITLE13=John Lee 'Sonny Boy' Williamson - Wiskey headed Blues
TTITLE14=John Lee Hooker - Huckle up baby
TTITLE15=Big Joe Williams - I know you gonna miss me
TTITLE16=Brownie McGhee - I'm callin' Daisy
TTITLE17=Big Joe Turner - I'm still in the dark
EXTD=
EXTT0=
EXTT1=
EXTT2=
EXTT3=
EXTT4=
EXTT5=
EXTT6=
EXTT7=
EXTT8=
EXTT9=
EXTT10=
EXTT11=
EXTT12=
EXTT13=
EXTT14=
EXTT15=
EXTT16=
EXTT17=
PLAYORDER=
